<?xml version="1.0" encoding="UTF-8"?><svg id="Layer_2" xmlns="http://www.w3.org/2000/svg" viewBox="0 0 152.64 152.64"><g id="BACKGROUND"><g><path d="M76.32,152.64C34.24,152.64,0,118.41,0,76.32S34.24,0,76.32,0s76.32,34.24,76.32,76.32-34.24,76.32-76.32,76.32Zm0-147.85C36.88,4.79,4.79,36.88,4.79,76.32s32.09,71.53,71.53,71.53,71.53-32.09,71.53-71.53S115.76,4.79,76.32,4.79Z" fill="#EF6461"/><path d="M76.32,119.2c-23.64,0-42.88-19.23-42.88-42.88s19.23-42.88,42.88-42.88,42.88,19.24,42.88,42.88-19.24,42.88-42.88,42.88Zm0-80.97c-21,0-38.09,17.09-38.09,38.09s17.09,38.09,38.09,38.09,38.09-17.09,38.09-38.09-17.09-38.09-38.09-38.09Z" fill="#EF6461"/></g></g></svg>