<?xml version="1.0" encoding="UTF-8"?><svg id="Layer_2" xmlns="http://www.w3.org/2000/svg" viewBox="0 0 85.47 329.63"><g id="BACKGROUND"><g><g><path d="M7.98,313.66c4.41,0,7.98,3.57,7.98,7.98s-3.57,7.98-7.98,7.98-7.98-3.57-7.98-7.98,3.57-7.98,7.98-7.98Z" fill="#1D2F6F"/><path d="M7.98,282.29c4.41,0,7.98,3.57,7.98,7.98s-3.57,7.98-7.98,7.98-7.98-3.58-7.98-7.98,3.57-7.98,7.98-7.98Z" fill="#1D2F6F"/><path d="M7.98,250.93c4.41,0,7.98,3.57,7.98,7.98s-3.57,7.98-7.98,7.98-7.98-3.57-7.98-7.98,3.57-7.98,7.98-7.98Z" fill="#1D2F6F"/><path d="M7.98,219.56c4.41,0,7.98,3.58,7.98,7.98s-3.57,7.98-7.98,7.98-7.98-3.57-7.98-7.98,3.57-7.98,7.98-7.98Z" fill="#1D2F6F"/><path d="M7.98,188.2c4.41,0,7.98,3.57,7.98,7.98s-3.57,7.98-7.98,7.98-7.98-3.57-7.98-7.98,3.57-7.98,7.98-7.98Z" fill="#1D2F6F"/><path d="M7.98,156.83c4.41,0,7.98,3.57,7.98,7.98s-3.57,7.98-7.98,7.98-7.98-3.57-7.98-7.98,3.57-7.98,7.98-7.98Z" fill="#1D2F6F"/><path d="M7.98,125.46c4.41,0,7.98,3.57,7.98,7.98s-3.57,7.98-7.98,7.98-7.98-3.57-7.98-7.98,3.57-7.98,7.98-7.98Z" fill="#1D2F6F"/><path d="M7.98,94.1c4.41,0,7.98,3.57,7.98,7.98s-3.57,7.98-7.98,7.98-7.98-3.57-7.98-7.98,3.57-7.98,7.98-7.98Z" fill="#1D2F6F"/><path d="M7.98,62.73c4.41,0,7.98,3.58,7.98,7.98s-3.57,7.98-7.98,7.98-7.98-3.57-7.98-7.98,3.57-7.98,7.98-7.98Z" fill="#1D2F6F"/><path d="M7.98,31.37c4.41,0,7.98,3.57,7.98,7.98s-3.57,7.98-7.98,7.98-7.98-3.57-7.98-7.98,3.57-7.98,7.98-7.98Z" fill="#1D2F6F"/><path d="M7.98,0c4.41,0,7.98,3.57,7.98,7.98s-3.57,7.98-7.98,7.98S0,12.39,0,7.98,3.57,0,7.98,0Z" fill="#1D2F6F"/></g><g><path d="M42.74,313.66c4.41,0,7.98,3.57,7.98,7.98s-3.57,7.98-7.98,7.98-7.98-3.57-7.98-7.98,3.57-7.98,7.98-7.98Z" fill="#1D2F6F"/><path d="M42.74,282.29c4.41,0,7.98,3.57,7.98,7.98s-3.57,7.98-7.98,7.98-7.98-3.58-7.98-7.98,3.57-7.98,7.98-7.98Z" fill="#1D2F6F"/><path d="M42.74,250.93c4.41,0,7.98,3.57,7.98,7.98s-3.57,7.98-7.98,7.98-7.98-3.57-7.98-7.98,3.57-7.98,7.98-7.98Z" fill="#1D2F6F"/><path d="M42.74,219.56c4.41,0,7.98,3.58,7.98,7.98s-3.57,7.98-7.98,7.98-7.98-3.57-7.98-7.98,3.57-7.98,7.98-7.98Z" fill="#1D2F6F"/><path d="M42.74,188.2c4.41,0,7.98,3.57,7.98,7.98s-3.57,7.98-7.98,7.98-7.98-3.57-7.98-7.98,3.57-7.98,7.98-7.98Z" fill="#1D2F6F"/><path d="M42.74,156.83c4.41,0,7.98,3.57,7.98,7.98s-3.57,7.98-7.98,7.98-7.98-3.57-7.98-7.98,3.57-7.98,7.98-7.98Z" fill="#1D2F6F"/><path d="M42.74,125.46c4.41,0,7.98,3.57,7.98,7.98s-3.57,7.98-7.98,7.98-7.98-3.57-7.98-7.98,3.57-7.98,7.98-7.98Z" fill="#1D2F6F"/><path d="M42.74,94.1c4.41,0,7.98,3.57,7.98,7.98s-3.57,7.98-7.98,7.98-7.98-3.57-7.98-7.98,3.57-7.98,7.98-7.98Z" fill="#1D2F6F"/><path d="M42.74,62.73c4.41,0,7.98,3.58,7.98,7.98s-3.57,7.98-7.98,7.98-7.98-3.57-7.98-7.98,3.57-7.98,7.98-7.98Z" fill="#1D2F6F"/><path d="M42.74,31.37c4.41,0,7.98,3.57,7.98,7.98s-3.57,7.98-7.98,7.98-7.98-3.57-7.98-7.98,3.57-7.98,7.98-7.98Z" fill="#1D2F6F"/><path d="M42.74,0c4.41,0,7.98,3.57,7.98,7.98s-3.57,7.98-7.98,7.98-7.98-3.57-7.98-7.98,3.57-7.98,7.98-7.98Z" fill="#1D2F6F"/></g><g><path d="M77.49,313.66c4.41,0,7.98,3.57,7.98,7.98s-3.57,7.98-7.98,7.98-7.98-3.57-7.98-7.98,3.57-7.98,7.98-7.98Z" fill="#1D2F6F"/><path d="M77.49,282.29c4.41,0,7.98,3.57,7.98,7.98s-3.57,7.98-7.98,7.98-7.98-3.58-7.98-7.98,3.57-7.98,7.98-7.98Z" fill="#1D2F6F"/><path d="M77.49,250.93c4.41,0,7.98,3.57,7.98,7.98s-3.57,7.98-7.98,7.98-7.98-3.57-7.98-7.98,3.57-7.98,7.98-7.98Z" fill="#1D2F6F"/><path d="M77.49,219.56c4.41,0,7.98,3.58,7.98,7.98s-3.57,7.98-7.98,7.98-7.98-3.57-7.98-7.98,3.57-7.98,7.98-7.98Z" fill="#1D2F6F"/><path d="M77.49,188.2c4.41,0,7.98,3.57,7.98,7.98s-3.57,7.98-7.98,7.98-7.98-3.57-7.98-7.98,3.57-7.98,7.98-7.98Z" fill="#1D2F6F"/><path d="M77.49,156.83c4.41,0,7.98,3.57,7.98,7.98s-3.57,7.98-7.98,7.98-7.98-3.57-7.98-7.98,3.57-7.98,7.98-7.98Z" fill="#1D2F6F"/><path d="M77.49,125.46c4.41,0,7.98,3.57,7.98,7.98s-3.57,7.98-7.98,7.98-7.98-3.57-7.98-7.98,3.57-7.98,7.98-7.98Z" fill="#1D2F6F"/><path d="M77.49,94.1c4.41,0,7.98,3.57,7.98,7.98s-3.57,7.98-7.98,7.98-7.98-3.57-7.98-7.98,3.57-7.98,7.98-7.98Z" fill="#1D2F6F"/><path d="M77.49,62.73c4.41,0,7.98,3.58,7.98,7.98s-3.57,7.98-7.98,7.98-7.98-3.57-7.98-7.98,3.57-7.98,7.98-7.98Z" fill="#1D2F6F"/><path d="M77.49,31.37c4.41,0,7.98,3.57,7.98,7.98s-3.57,7.98-7.98,7.98-7.98-3.57-7.98-7.98,3.57-7.98,7.98-7.98Z" fill="#1D2F6F"/><path d="M77.49,0c4.41,0,7.98,3.57,7.98,7.98s-3.57,7.98-7.98,7.98-7.98-3.57-7.98-7.98,3.57-7.98,7.98-7.98Z" fill="#1D2F6F"/></g></g></g></svg>