<?xml version="1.0" encoding="UTF-8"?><svg id="Layer_2" xmlns="http://www.w3.org/2000/svg" viewBox="0 0 431.33 145.98"><g id="BACKGROUND"><g><polygon points="431.33 30.78 369.5 0 306.93 31.13 244.37 0 181.82 31.13 119.27 0 56.71 31.13 0 2.91 0 11.6 56.71 39.83 119.27 8.7 181.82 39.83 244.37 8.7 306.93 39.83 369.5 8.7 431.33 39.47 431.33 30.78" fill="#313638"/><polygon points="431.33 66.16 369.5 35.38 306.93 66.52 244.37 35.38 181.82 66.52 119.27 35.38 56.71 66.52 0 38.29 0 46.98 56.71 75.21 119.27 44.08 181.82 75.21 244.37 44.08 306.93 75.21 369.5 44.08 431.33 74.86 431.33 66.16" fill="#313638"/><polygon points="431.33 101.55 369.5 70.77 306.93 101.9 244.37 70.77 181.82 101.9 119.27 70.77 56.71 101.9 0 73.68 0 82.37 56.71 110.6 119.27 79.46 181.82 110.6 244.37 79.46 306.93 110.6 369.5 79.46 431.33 110.24 431.33 101.55" fill="#313638"/><polygon points="431.33 136.93 369.5 106.15 306.93 137.29 244.37 106.15 181.82 137.29 119.27 106.15 56.71 137.29 0 109.06 0 117.75 56.71 145.98 119.27 114.85 181.82 145.98 244.37 114.85 306.93 145.98 369.5 114.85 431.33 145.63 431.33 136.93" fill="#313638"/></g></g></svg>